<?xml version="1.0" encoding="utf-8"?>
<!-- Generator: Adobe Illustrator 24.0.0, SVG Export Plug-In . SVG Version: 6.00 Build 0)  -->
<svg version="1.1" id="Layer_1" xmlns="http://www.w3.org/2000/svg" xmlns:xlink="http://www.w3.org/1999/xlink" x="0px" y="0px"
	 viewBox="0 0 1200 600" style="enable-background:new 0 0 1200 600;" xml:space="preserve">
<style type="text/css">
	.st0{fill:#FFFFFF;}
	.st1{fill:#F8F8F8;stroke:#3D4043;stroke-linecap:round;stroke-miterlimit:10;}
	.st2{fill:#F1F1F1;stroke:#3D4043;stroke-linecap:round;stroke-linejoin:round;}
	.st3{fill:#FAD2CF;}
	.st4{fill:#FFFFFF;stroke:#FFFFFF;stroke-linecap:round;stroke-linejoin:round;}
	.st5{fill:#FFFFFF;stroke:#BBBFC4;stroke-linecap:round;stroke-linejoin:round;}
	.st6{fill:none;stroke:#BBBFC4;stroke-linecap:round;stroke-linejoin:round;}
	.st7{fill:#E6E8EB;stroke:#E6E8EB;stroke-linecap:round;stroke-linejoin:round;}
	.st8{fill:none;stroke:#BBBFC4;}
	.st9{fill-rule:evenodd;clip-rule:evenodd;fill:#BBBFC4;}
	.st10{fill:none;stroke:#E8EAED;stroke-linecap:round;stroke-linejoin:round;stroke-miterlimit:10;}
	.st11{fill:#5F6368;}
	.st12{fill:none;stroke:#E6E8EB;stroke-linecap:round;stroke-linejoin:round;}
	.st13{opacity:0.91;}
	.st14{fill:#E6E6E6;stroke:#FFFFFF;stroke-width:0.75;stroke-miterlimit:10;}
	.st15{fill:#3D4043;stroke:#FFFFFF;stroke-width:0.75;stroke-miterlimit:10;}
	.st16{fill:#FFFFFF;stroke:#34A853;stroke-linecap:round;stroke-linejoin:round;}
	.st17{fill:#34A853;}
	.st18{fill:#D2E3FC;}
	.st19{clip-path:url(#SVGID_2_);}
	.st20{fill:#F1F3F4;}
	.st21{fill:#D4E2F9;}
	.st22{fill:none;stroke:#3D4043;stroke-linecap:round;stroke-linejoin:round;stroke-miterlimit:10;}
	.st23{fill:#3D4043;}
	.st24{fill:#FFFFFF;stroke:#3D4043;stroke-linecap:round;stroke-linejoin:round;stroke-miterlimit:10;}
	.st25{fill:#81C995;}
	.st26{fill:#4285F4;}
	.st27{fill:#FBBC04;}
	.st28{fill:#E39656;}
	.st29{fill:#3D4043;stroke:#3D4043;stroke-linecap:round;stroke-linejoin:round;stroke-miterlimit:10;}
	.st30{fill:#E8EAED;}
	.st31{clip-path:url(#SVGID_4_);}
	.st32{fill:#C2C2C2;filter:url(#Adobe_OpacityMaskFilter);}
	.st33{mask:url(#mask10_1_);}
	.st34{clip-path:url(#SVGID_6_);}
	.st35{fill:none;stroke:#D75040;stroke-linejoin:round;}
	.st36{fill:none;stroke:#BBBFC4;stroke-linejoin:round;}
	.st37{fill:none;stroke:#BBBFC4;stroke-linecap:round;stroke-linejoin:bevel;}
	.st38{fill:#EA3523;}
	.st39{fill:#3C4043;}
	.st40{fill:#D2E1F7;}
	.st41{fill:none;stroke:#3C4043;stroke-linecap:round;stroke-linejoin:round;stroke-miterlimit:10;}
	.st42{fill:#F2BC42;stroke:#F2BC42;stroke-linecap:round;stroke-linejoin:round;}
	.st43{fill:none;stroke:#FFFFFF;stroke-linecap:round;stroke-linejoin:round;}
	.st44{clip-path:url(#SVGID_8_);}
	.st45{fill:#D2E3FC;stroke:#D2E3FC;stroke-linecap:round;stroke-linejoin:round;stroke-miterlimit:10;}
	.st46{fill:#FFFFFF;stroke:#3C4043;stroke-linecap:round;stroke-linejoin:round;stroke-miterlimit:10;}
	.st47{fill:#3C4043;stroke:#3C4043;stroke-linecap:round;stroke-linejoin:round;stroke-miterlimit:10;}
	.st48{fill:#F2A485;}
	.st49{fill:#E38460;}
	.st50{clip-path:url(#SVGID_8_);fill:#E8EAED;}
	.st51{clip-path:url(#SVGID_8_);fill:#FFFFFF;}
	.st52{clip-path:url(#SVGID_8_);fill:#FBBC04;}
	.st53{clip-path:url(#SVGID_10_);}
	.st54{fill:#DC804D;}
	.st55{fill:#1E2C3E;}
	.st56{fill:#FBBC04;stroke:#FBBC04;stroke-linecap:round;stroke-linejoin:round;stroke-miterlimit:10;}
	.st57{fill:#936E55;}
	.st58{fill:#E8EAED;stroke:#E8EAED;stroke-miterlimit:10;}
	.st59{fill:#B3C1C7;}
	.st60{clip-path:url(#SVGID_10_);fill:#D2E3FC;}
	.st61{fill:none;stroke:#FFFFFF;stroke-linecap:round;stroke-linejoin:round;stroke-miterlimit:10;}
	.st62{fill:#4285F4;stroke:#4285F4;}
	.st63{fill-rule:evenodd;clip-rule:evenodd;fill:#FFFFFF;}
	.st64{fill:none;stroke:#BEC1C5;stroke-linecap:round;stroke-miterlimit:10;}
	.st65{fill:none;stroke:#4285F4;stroke-linecap:round;stroke-linejoin:round;stroke-miterlimit:10;}
	.st66{fill:#FFFFFF;stroke:#3D4043;stroke-linecap:round;stroke-linejoin:round;}
	.st67{fill:none;stroke:#3D4043;stroke-linecap:round;stroke-miterlimit:10;}
	.st68{opacity:0.2;fill:#ABAEB2;}
	.st69{fill:#2573E8;}
	.st70{fill:none;stroke:#3D4043;stroke-miterlimit:10;}
	.st71{fill:#FFFFFF;stroke:#3D4043;stroke-width:0.9986;stroke-linecap:round;stroke-linejoin:round;}
	.st72{fill:none;stroke:#DEDEDE;stroke-miterlimit:10;}
	.st73{fill:#F2FDF5;stroke:#58A35D;stroke-miterlimit:10;}
	.st74{fill:none;stroke:#2573E8;stroke-linecap:round;stroke-miterlimit:10;}
	.st75{fill:#58A35D;}
	.st76{fill:none;stroke:#636669;stroke-miterlimit:10;}
	.st77{fill:#636669;}
	.st78{opacity:0.5;fill:#FFFFFF;}
	.st79{fill:none;stroke:#FFFFFF;stroke-linecap:round;stroke-miterlimit:10;}
	.st80{fill:#F2BC42;}
	.st81{fill:#4E85EB;}
	.st82{fill:#58A45C;}
	.st83{fill-rule:evenodd;clip-rule:evenodd;fill:none;stroke:#FFFFFF;stroke-miterlimit:10;}
	.st84{fill:none;stroke:#FFFFFF;stroke-miterlimit:10;}
	.st85{fill:none;stroke:#F1BA41;stroke-miterlimit:10;}
	.st86{fill:none;stroke:#EA4335;stroke-miterlimit:10;}
	.st87{fill:none;stroke:#4D4D4D;stroke-miterlimit:10;}
	.st88{fill:none;stroke:#3D4043;stroke-linecap:round;stroke-linejoin:round;}
	.st89{fill:none;stroke:#3C4043;stroke-miterlimit:10;}
	.st90{fill:#E7E9EC;stroke:#E7E9EC;stroke-linecap:round;stroke-linejoin:round;}
	.st91{fill:none;stroke:#BEC1C5;}
	.st92{fill:none;stroke:#BEC1C5;stroke-linecap:round;stroke-linejoin:round;}
	.st93{fill:#4285F4;stroke:#4285F4;stroke-linecap:round;stroke-linejoin:round;}
	.st94{fill:#FFFFFF;stroke:#BEC1C5;stroke-linecap:round;stroke-linejoin:round;}
	.st95{fill:#FFFFFF;stroke:#FFFFFF;}
	.st96{fill:none;stroke:#BEC1C5;stroke-width:0.8817;stroke-linecap:round;stroke-linejoin:round;}
	.st97{clip-path:url(#SVGID_12_);}
	.st98{fill:#BDC0C4;}
	.st99{fill:#E7E9EC;stroke:#E7E9EC;stroke-width:0.8817;stroke-linecap:round;stroke-linejoin:round;}
	.st100{fill:#4E85EB;stroke:#4E85EB;stroke-linecap:round;stroke-linejoin:round;}
	.st101{fill:#D2E3FC;stroke:#D2E3FC;stroke-miterlimit:10;}
	.st102{fill:#EA3323;}
	.st103{fill:none;stroke:#3C4043;stroke-linecap:round;stroke-linejoin:round;}
</style>
<rect x="-10" y="-8.5" class="st0" width="1220" height="617"/>
<g>
	<path class="st4" d="M500.1,61.5h200.2c13,0,23.6,10.5,23.6,23.6V515c0,13-10.5,23.6-23.6,23.6H500.1c-13,0-23.6-10.5-23.6-23.6V85
		C476.5,72,487.1,61.5,500.1,61.5z"/>
	<g>
		<defs>
			<rect id="SVGID_3_" x="476.5" y="432" width="247" height="71"/>
		</defs>
		<clipPath id="SVGID_2_">
			<use xlink:href="#SVGID_3_"  style="overflow:visible;"/>
		</clipPath>
		<g class="st19">
			<defs>
				<filter id="Adobe_OpacityMaskFilter" filterUnits="userSpaceOnUse" x="476.5" y="414.4" width="247.4" height="180.4">
					<feColorMatrix  type="matrix" values="1 0 0 0 0  0 1 0 0 0  0 0 1 0 0  0 0 0 1 0"/>
				</filter>
			</defs>
			<mask maskUnits="userSpaceOnUse" x="476.5" y="414.4" width="247.4" height="180.4" id="mask10_1_">
				<rect x="492.7" y="448.3" class="st32" width="215" height="112.6"/>
			</mask>
			<g class="st33">
				<path class="st30" d="M476.5,414.4h247.4v180.4H476.5V414.4z"/>
			</g>
			<path class="st11" d="M517.5,582.4h170.6v5.9H517.5V582.4z"/>
			<path class="st11" d="M493.8,594.2h170.8v5.9H493.8V594.2z"/>
			<rect x="482.4" y="436" class="st12" width="235.6" height="216"/>
			<g class="st13">
				<circle class="st14" cx="606" cy="567.7" r="1.8"/>
				<circle class="st14" cx="599.6" cy="567.7" r="1.8"/>
				<circle class="st15" cx="593.2" cy="567.7" r="1.8"/>
			</g>
			<g>
				<rect x="494.2" y="581.3" class="st16" width="15.6" height="8.9"/>
				<path class="st17" d="M501,587h-1.7l-0.3,1h-1l1.8-4.8h0.9l1.8,4.8h-1L501,587z M499.6,586.2h1.2l-0.6-1.8L499.6,586.2z"/>
				<path class="st17" d="M502.6,586.2c0-0.6,0.1-1,0.4-1.3c0.2-0.3,0.6-0.5,1-0.5c0.3,0,0.6,0.1,0.9,0.4V583h0.9v5H505l0-0.4
					c-0.2,0.3-0.5,0.4-0.9,0.4c-0.4,0-0.8-0.2-1-0.5C502.8,587.3,502.6,586.8,502.6,586.2z M503.6,586.3c0,0.3,0.1,0.6,0.2,0.8
					c0.1,0.2,0.3,0.3,0.5,0.3c0.3,0,0.5-0.1,0.6-0.4v-1.4c-0.1-0.2-0.3-0.4-0.6-0.4C503.8,585.2,503.6,585.6,503.6,586.3z"/>
			</g>
		</g>
	</g>
	<path class="st5" d="M476.5,85c0-13,10.5-23.6,23.6-23.6h200.2c13,0,23.6,10.5,23.6,23.6v11.8H476.5V85z"/>
	<path class="st6" d="M500.1,61.5h200.2c13,0,23.6,10.5,23.6,23.6V515c0,13-10.5,23.6-23.6,23.6H500.1c-13,0-23.6-10.5-23.6-23.6V85
		C476.5,72,487.1,61.5,500.1,61.5z"/>
	<path class="st6" d="M723.9,503.2H476.5"/>
	<path class="st6" d="M561.9,73.3L561.9,73.3c0,3.3,2.6,5.9,5.9,5.9h64.8c3.3,0,5.9-2.6,5.9-5.9l0,0"/>
	<path class="st7" d="M488.3,185.2h29.4v5.9h-29.4V185.2z"/>
	<path class="st7" d="M547.2,185.2h29.4v5.9h-29.4V185.2z"/>
	<path class="st7" d="M606.1,185.2h29.4v5.9h-29.4V185.2z"/>
	<path class="st7" d="M665,185.2h29.4v5.9H665V185.2z"/>
	<circle class="st8" cx="697.4" cy="124.1" r="10.7"/>
	<path class="st6" d="M491.3,120.1h10.3"/>
	<path class="st6" d="M491.3,123.2h10.3"/>
	<path class="st6" d="M491.3,126.2h10.3"/>
	<path class="st9" d="M578.7,130.5c-4.3,0-7.9-3.3-7.9-7.5c0-4.1,3.6-7.5,7.9-7.5c2.4,0,4.1,0.9,5.4,2.1l-1.5,1.4
		c-0.9-0.8-2.2-1.5-3.9-1.5c-3.1,0-5.6,2.4-5.6,5.4c0,3,2.5,5.4,5.6,5.4c2,0,3.2-0.8,4-1.5c0.6-0.6,1-1.4,1.2-2.6h-5.1v-2h7.2
		c0.1,0.4,0.1,0.8,0.1,1.2c0,1.5-0.4,3.4-1.8,4.8C582.8,129.7,581.1,130.5,578.7,130.5z"/>
	<path class="st9" d="M597.1,125.7c0,2.8-2.3,4.8-5,4.8c-2.8,0-5-2-5-4.8c0-2.8,2.3-4.8,5-4.8C594.8,120.9,597.1,122.9,597.1,125.7z
		 M594.9,125.7c0-1.7-1.3-2.9-2.8-2.9c-1.5,0-2.8,1.2-2.8,2.9c0,1.7,1.3,2.9,2.8,2.9C593.5,128.6,594.9,127.4,594.9,125.7z"/>
	<path class="st9" d="M608,125.7c0,2.8-2.3,4.8-5,4.8c-2.8,0-5-2-5-4.8c0-2.8,2.3-4.8,5-4.8C605.7,120.9,608,122.9,608,125.7z
		 M605.8,125.7c0-1.7-1.3-2.9-2.8-2.9c-1.5,0-2.8,1.2-2.8,2.9c0,1.7,1.3,2.9,2.8,2.9C604.4,128.6,605.8,127.4,605.8,125.7z"/>
	<path class="st9" d="M618.3,121.1v8.6c0,3.5-2.2,5-4.8,5c-2.4,0-3.9-1.6-4.5-2.8l1.9-0.8c0.3,0.8,1.2,1.7,2.5,1.7
		c1.7,0,2.7-1,2.7-2.8v-0.7h-0.1c-0.5,0.6-1.5,1.1-2.7,1.1c-2.5,0-4.7-2.1-4.7-4.8c0-2.7,2.2-4.8,4.7-4.8c1.2,0,2.1,0.5,2.7,1.1h0.1
		v-0.8H618.3z M616.3,125.7c0-1.7-1.2-2.9-2.7-2.9c-1.5,0-2.7,1.2-2.7,2.9c0,1.7,1.2,2.9,2.7,2.9
		C615.1,128.6,616.3,127.4,616.3,125.7z"/>
	<path class="st9" d="M621.7,116.1v14.1h-2.2v-14.1H621.7z"/>
	<path class="st9" d="M629.9,127.3l1.7,1.1c-0.6,0.8-1.9,2.1-4.2,2.1c-2.9,0-5-2.1-5-4.8c0-2.9,2.2-4.8,4.7-4.8c2.6,0,3.9,2,4.3,3.1
		l0.2,0.5l-6.7,2.7c0.5,1,1.3,1.5,2.4,1.5C628.6,128.6,629.4,128,629.9,127.3z M624.7,125.5l4.5-1.8c-0.3-0.6-1-1-1.9-1
		C626.2,122.7,624.6,123.7,624.7,125.5z"/>
	<path class="st6" d="M525.8,158.7h61.3"/>
	<path class="st6" d="M488.3,158.7c0-8.1,6.6-14.7,14.7-14.7h194.3c8.1,0,14.7,6.6,14.7,14.7l0,0c0,8.1-6.6,14.7-14.7,14.7H503
		C494.9,173.4,488.3,166.8,488.3,158.7L488.3,158.7z"/>
	<path class="st6" d="M507,160.9l3,3"/>
	<circle class="st6" cx="504.1" cy="157.2" r="4.5"/>
	<path class="st6" d="M476.5,201.4h247.4"/>
	<g>
		<path class="st6" d="M494.5,385.9h196.3"/>
		<path class="st6" d="M494.5,397.7h144.8"/>
		<path class="st10" d="M509,412.7h20"/>
		<path class="st11" d="M517.5,356.4h170.6v5.9H517.5V356.4z"/>
		<path class="st11" d="M493.8,368.2h170.8v5.9H493.8V368.2z"/>
		<rect x="482.4" y="210" class="st12" width="235.6" height="216"/>
		<g class="st13">
			<circle class="st14" cx="606" cy="341.7" r="1.8"/>
			<circle class="st14" cx="599.6" cy="341.7" r="1.8"/>
			<circle class="st15" cx="593.2" cy="341.7" r="1.8"/>
		</g>
		<g>
			<rect x="494.2" y="355.3" class="st16" width="15.6" height="8.9"/>
			<path class="st17" d="M501,361h-1.7l-0.3,1h-1l1.8-4.8h0.9l1.8,4.8h-1L501,361z M499.6,360.2h1.2l-0.6-1.8L499.6,360.2z"/>
			<path class="st17" d="M502.6,360.2c0-0.6,0.1-1,0.4-1.3c0.2-0.3,0.6-0.5,1-0.5c0.3,0,0.6,0.1,0.9,0.4V357h0.9v5H505l0-0.4
				c-0.2,0.3-0.5,0.4-0.9,0.4c-0.4,0-0.8-0.2-1-0.5C502.8,361.3,502.6,360.8,502.6,360.2z M503.6,360.3c0,0.3,0.1,0.6,0.2,0.8
				c0.1,0.2,0.3,0.3,0.5,0.3c0.3,0,0.5-0.1,0.6-0.4v-1.4c-0.1-0.2-0.3-0.4-0.6-0.4C503.8,359.2,503.6,359.6,503.6,360.3z"/>
		</g>
		<circle class="st18" cx="499.3" cy="413" r="4"/>
		<g>
			<defs>
				<rect id="SVGID_5_" x="493.5" y="218" width="213" height="116"/>
			</defs>
			<clipPath id="SVGID_4_">
				<use xlink:href="#SVGID_5_"  style="overflow:visible;"/>
			</clipPath>
			<g class="st31">
				<g>
					<rect x="488.8" y="207.7" class="st20" width="259.1" height="112"/>
				</g>
				<g>
					<g>
						<rect x="555.9" y="207.7" class="st0" width="0.4" height="112.1"/>
					</g>
					<g>
						<rect x="589.6" y="207.7" class="st0" width="0.4" height="112.1"/>
					</g>
					<g>
						<rect x="522.5" y="207.7" class="st0" width="0.4" height="112.1"/>
					</g>
					<g>
						<rect x="623.4" y="207.7" class="st0" width="0.4" height="112.1"/>
					</g>
					<g>
						<rect x="657.2" y="207.7" class="st0" width="0.4" height="112.1"/>
					</g>
					<g>
						<rect x="690.9" y="207.7" class="st0" width="0.4" height="112.1"/>
					</g>
					<g>
						<rect x="724.6" y="207.7" class="st0" width="0.4" height="112.1"/>
					</g>
					<g>
						<rect x="488.8" y="300" class="st0" width="259.1" height="0.4"/>
					</g>
					<g>
						<rect x="488.8" y="266.3" class="st0" width="259.1" height="0.4"/>
					</g>
					<g>
						<rect x="488.8" y="232.6" class="st0" width="259.1" height="0.4"/>
					</g>
				</g>
				<g>
					<path class="st17" d="M605.6,273.8c1.8,2.7,1.1,6.3-1.6,8.1c-2.7,1.8-6.3,1.1-8.1-1.6c-1.8-2.7-1.1-6.3,1.6-8.1
						C600.1,270.4,603.8,271.1,605.6,273.8z"/>
				</g>
				<g>
					<path class="st21" d="M552.9,255.7l11.1,1c3.3,8.2,10.1,14.3,12.5,22.1c1,3.3-6.7,46.4-6.7,46.4l-35.2-0.8
						C535.5,315.8,530.3,261.2,552.9,255.7z"/>
				</g>
				<g>
					<path class="st22" d="M552.9,255.7l11.1,1c3.3,8.2,10.1,14.3,12.5,22.1c1,3.3-6.7,46.4-6.7,46.4l-35.2-0.8
						c0.4-4.2-0.6-19.4,0.9-34.5"/>
				</g>
				<g>
					<path class="st23" d="M563.6,256.3c11-1.8,13.3-7,9.1-11c-3.4-3.5-2.2-8.8-3.3-14.1c-2.5-6-12.3-6.5-15.6-1.5
						c-2.8,4.4-5.5,5.6-9.5,8.4c-12.8,9,1.6,17.6,8.6,17.5L563.6,256.3z"/>
				</g>
				<g>
					<rect x="488.8" y="318.9" class="st0" width="259.1" height="84.9"/>
				</g>
				<g>
					<g>
						<path class="st23" d="M660.8,321.8c0,0.4,0.1,0.7,0.1,1v13.3l-22-0.1v-13.2c0-0.3,0-0.6,0.1-1H660.8z"/>
					</g>
					<g>
						<path class="st24" d="M660.8,322h-21.9c0.2-3.8,2-6.9,4.7-8l12.4,0C658.9,315.1,660.6,318.2,660.8,322z"/>
					</g>
					<g>
						<g>
							<path class="st24" d="M653.9,279.5h6.7c0.8,0,1.6,0.1,2.4,0.4c0.8,0.3,1.5,0.8,2.2,1.4c1.2,1.2,1.9,2.8,1.9,4.5v14.5
								c0,1.7-0.7,3.3-1.9,4.5c-1.2,1.2-2.9,1.9-4.5,1.9h-6.8V279.5z M656.4,282v22.2h4.3c1,0,2-0.4,2.8-1.1
								c0.7-0.7,1.2-1.7,1.2-2.7v-14.5c0-1-0.4-1.9-1.2-2.7c-0.7-0.7-1.7-1.1-2.8-1.1H656.4z"/>
						</g>
					</g>
					<g>
						<path class="st21" d="M660,279.5v24c0,4.1-1.5,7.6-4,8.8h-12.2c-2.5-1.2-3.9-4.7-3.9-8.8v-24H660z"/>
					</g>
					<g>
						<path class="st23" d="M645.1,277.6h8.2v-0.1c0-0.6-0.3-1.2-0.8-1.7c-0.5-0.5-1.1-0.7-1.7-0.7h-3.3c-0.6,0-1.2,0.2-1.7,0.7
							C645.3,276.3,645.1,276.9,645.1,277.6L645.1,277.6z"/>
					</g>
					<g>
						<polygon class="st24" points="639.9,279.6 637,279.6 639.9,284.5 						"/>
					</g>
					<g>
						<rect x="643.6" y="312.4" class="st24" width="12.7" height="1.7"/>
					</g>
					<g>
						<path class="st21" d="M639.8,279.6H660v-0.2c0-0.6-0.3-1.2-0.7-1.7c-0.5-0.5-1.1-0.7-1.7-0.7h-15.2c-0.6,0-1.3,0.2-1.8,0.7
							C640.1,278.3,639.8,278.9,639.8,279.6L639.8,279.6z"/>
					</g>
					<g>
						<rect x="639.8" y="288.6" class="st23" width="3.6" height="0.4"/>
					</g>
					<g>
						<rect x="639.8" y="289.9" class="st23" width="3.6" height="0.4"/>
					</g>
					<g>
						<rect x="639.8" y="291.2" class="st23" width="3.6" height="0.4"/>
					</g>
					<g>
						<rect x="639.8" y="292.6" class="st23" width="3.6" height="0.4"/>
					</g>
					<g>
						<rect x="639.8" y="294" class="st23" width="3.6" height="0.4"/>
					</g>
					<g>
						<rect x="639.8" y="295.3" class="st23" width="3.6" height="0.4"/>
					</g>
					<g>
						<rect x="639.8" y="296.8" class="st23" width="3.6" height="0.4"/>
					</g>
					<g>
						<rect x="639.8" y="298.1" class="st23" width="3.6" height="0.4"/>
					</g>
					<g>
						<rect x="639.8" y="299.4" class="st23" width="3.6" height="0.4"/>
					</g>
					<g>
						<rect x="639.8" y="300.9" class="st23" width="3.6" height="0.4"/>
					</g>
					<g>
						<rect x="639.8" y="302.2" class="st23" width="3.6" height="0.4"/>
					</g>
					<g>
						<rect x="639.8" y="303.6" class="st23" width="3.6" height="0.4"/>
					</g>
					<g>
						<rect x="639.8" y="305" class="st23" width="3.6" height="0.4"/>
					</g>
					<g>
						<g>
							<circle class="st21" cx="649.5" cy="329.1" r="2.8"/>
						</g>
						<g>
							<rect x="646.7" y="328.9" class="st23" width="1.2" height="0.4"/>
						</g>
					</g>
					<g>
						<rect x="639.8" y="279.4" class="st24" width="20.1" height="2.7"/>
					</g>
				</g>
				<g>
					<g>
						<g>
							<path class="st17" d="M620.8,321c-0.3,1.5,0.1,3,1.2,4c1.1,1.1,2.6,1.5,4.1,1.2L620.8,321z"/>
						</g>
						<g>
							<path class="st25" d="M623.8,324l-3.1-3c1.6-0.4,3,0.1,4.1,1.2c1.1,1.1,1.6,2.4,1.2,4L623.8,324"/>
						</g>
					</g>
					<g>
						<g>
							<path class="st26" d="M616.2,328.6C616.2,328.6,616.2,328.7,616.2,328.6c0.1,1.7,1.3,2.8,2.9,2.8c1.5,0,2.8-1.2,2.9-2.8
								c0,0,0-0.1,0-0.1c0-1.7-1.3-2.9-2.9-2.9C617.5,325.7,616.2,327,616.2,328.6z"/>
						</g>
						<g>
							<g>
								<path class="st23" d="M617.9,329.1c0,0-0.1,0-0.1-0.1c0,0,0-0.1,0-0.1l0.5-0.5c0,0,0.1-0.1,0.1-0.1c0,0,0-0.1,0-0.1
									l-0.3-0.6c0-0.1,0-0.1,0-0.2c0,0,0.1,0,0.2,0l0.5,0.3c0,0,0.1,0,0.2,0c0.1,0,0.1,0,0.1-0.1l0.5-0.4c0,0,0.1,0,0.1,0
									c0,0,0.1,0.1,0.1,0.1l-0.2,0.6c0,0.1,0,0.1,0,0.2c0,0.1,0.1,0.1,0.1,0.1l0.6,0.3c0,0,0.1,0.1,0.1,0.1c0,0-0.1,0.1-0.1,0.1
									l-0.8,0.1c0,0-0.1,0-0.1,0.1c0,0-0.1,0.1-0.1,0.1l-0.1,0.5c0,0.1-0.1,0.1-0.1,0.1c-0.1,0-0.1,0-0.2-0.1l-0.2-0.5
									c0,0-0.1-0.1-0.1-0.1c0,0-0.1,0-0.2,0L617.9,329.1z"/>
							</g>
						</g>
						<g>
							<path class="st26" d="M618.9,328.1c0.2-0.1,0.4,0,0.5,0.2c0.1,0.2,0,0.4-0.2,0.5c-0.2,0.1-0.4,0-0.5-0.2
								S618.7,328.2,618.9,328.1z"/>
						</g>
					</g>
					<g>
						<g>
							<path class="st27" d="M625.2,328.2c1,0,1.8,0.8,1.8,1.8c0,1-0.8,1.8-1.8,1.8c-1,0-1.8-0.8-1.8-1.8
								C623.4,329,624.2,328.2,625.2,328.2z"/>
						</g>
					</g>
				</g>
				<g>
					<path class="st28" d="M547.4,330.1c3.7-0.1,6.1,0.4,8.2,0.7c0.6,0.1,1-0.7,0-1c-1.2-0.3-2.4-0.7-3.6-1c0-0.3,1.1-0.4,2.9-0.9
						l5.4,1.6c0.5,0.2,1,0,1.3-0.4l-1.7-0.8c0.5,0,1,0.1,1.4,0.1c0.5-0.1,1.1-0.4,0.9-0.6c0,0-4.6-0.9-6.2-1.3l-0.6-0.3
						c-0.4-0.1-2-0.9-3.1-0.9l-7,0.3c-0.2,0-2,1.9-2,1.9C544.5,328.5,545.4,330,547.4,330.1z"/>
				</g>
				<g>
					<path class="st22" d="M547.4,330.1c3.7-0.1,6.1,0.4,8.2,0.7c0.6,0.1,1-0.7,0-1c-1.2-0.3-2.4-0.7-3.6-1c0-0.3,1.1-0.4,2.9-0.9
						l5.4,1.6c0.5,0.2,1,0,1.3-0.4l-1.7-0.8c0.5,0,1,0.1,1.4,0.1c0.5-0.1,1.1-0.4,0.9-0.6c0,0-4.6-0.9-6.2-1.3l-0.6-0.3
						c-0.4-0.1-2-0.9-3.1-0.9l-7,0.3c-0.2,0-2,1.9-2,1.9C544.5,328.5,545.4,330,547.4,330.1z"/>
				</g>
				<g>
					<path class="st28" d="M569.7,239.9L569.7,239.9c0.4-0.3,1.8-0.4,1.3-1.7c-0.6-1.6-0.7-5.3-1.9-6.9c-2.6-2.7-5.3,3.7-9.7,4.6
						c-0.2,0.1-2.1,2.3-2.9,5.4l-3.7,14.3c5.8,4.6,10.5,4.5,11,0.7c0-2.7,0.5-6.3,1.3-10l1.6,0c1.6-0.1,2.5-1.2,2.6-2.4L569.7,239.9
						z"/>
				</g>
				<g>
					<path class="st22" d="M569.7,239.9L569.7,239.9c0.4-0.3,1.8-0.4,1.3-1.7c-0.6-1.6-0.7-5.3-1.9-6.9c-2.6-2.7-5.3,3.7-9.7,4.6
						c-0.2,0.1-2.1,2.3-2.9,5.4l-3.7,14.3c5.8,4.6,10.5,4.5,11,0.7c0-2.7,0.5-6.3,1.3-10l1.6,0c1.6-0.1,2.5-1.2,2.6-2.4L569.7,239.9
						z"/>
				</g>
				<g>
					<path class="st29" d="M563.8,256.2l1.3-10l-3.9-1.1C561,244.8,563.1,252.3,563.8,256.2z"/>
				</g>
				<g>
					<path class="st28" d="M561.1,238c0.6,0.9,0.3,2.2-0.6,2.7l0,0c-0.9,0.6-2.2,0.3-2.7-0.6l-1.3-2.1c-0.6-0.9-0.3-2.2,0.6-2.7l0,0
						c0.9-0.6,2.2-0.3,2.7,0.6L561.1,238z"/>
				</g>
				<g>
					<path class="st22" d="M560.4,240.7c-0.9,0.6-2.2,0.3-2.7-0.6l-1.3-2.1c-0.6-0.9-0.3-2.2,0.6-2.7l0,0c0.9-0.6,2.2-0.3,2.7,0.6"
						/>
				</g>
				<g>
					<g>
						<path class="st21" d="M556.5,245.4c-0.4,0-0.8-0.1-1.2-0.2c-1.9-0.7-2.8-2.7-2.1-4.6c0.5-1.5,1.9-2.4,3.4-2.4
							c0.1,0,0.3,0.4,0.3,0.4c-1.5-0.2-2.9,0.7-3.4,2.1c-0.6,1.7,0.3,3.5,1.9,4.1c0.8,0.3,1.7,0.3,2.5-0.1c0.8-0.4,1.4-1,1.7-1.8
							c0.5-1.5-0.1-3.1-1.4-3.9l0.2-0.3c1.5,0.9,2.2,2.7,1.6,4.3c-0.3,0.9-1,1.6-1.9,2C557.5,245.3,557,245.4,556.5,245.4z"/>
					</g>
				</g>
				<g>
					<path class="st0" d="M632.9,273.1c0,0.3-0.2,0.6-0.6,0.6c-0.3,0-0.6-0.2-0.6-0.6c0-0.3,0.2-0.6,0.6-0.6
						C632.7,272.5,632.9,272.8,632.9,273.1z"/>
				</g>
				<g>
					<path class="st0" d="M632.8,276c0,0.3-0.2,0.6-0.6,0.6c-0.3,0-0.6-0.2-0.6-0.6s0.2-0.6,0.6-0.6
						C632.6,275.4,632.8,275.7,632.8,276z"/>
				</g>
				<g>
					<circle class="st0" cx="634" cy="274.6" r="0.4"/>
				</g>
				<g>
					<path class="st28" d="M595.8,281.5c3.5-0.9,5.9,0.2,7.7,0.2l4.8-3c0.5-0.3,1-0.3,1.3,0l-1.4,1.2c0.5-0.2,0.9-0.3,1.3-0.4
						c0.5-0.1,1.1,0.1,1,0.3c0,0-4.2,2.2-5.6,2.9l-0.5,0.4c-0.4,0.2-1.7,1.4-2.7,1.7l-6.9,1.6c-0.2,0-2.5-1.3-2.5-1.3
						C593.5,283.8,594,282.1,595.8,281.5z"/>
				</g>
				<g>
					<polygon class="st21" points="574.8,298.9 596.3,286.3 593.8,281.2 577,287.5 					"/>
				</g>
				<g>
					<g>
						<path class="st24" d="M570.9,319.3l5.7-29.8c1.1-4.1,1-7.6,0-10.8h-21.8l-15.7,40.7L570.9,319.3z"/>
					</g>
				</g>
				<path class="st21" d="M553.7,260.4c-3.9-3.1-8.9-1.6-11.9,2L517.4,291c-1.2,1.1-1.7,2.8-1.4,4.4c0.1,1.3,0.6,2.6,1.5,3.7
					l25,29.5l4.6-3.3l-17.6-29.8l23.5-22.1C556.7,269.6,557.6,263.5,553.7,260.4z"/>
				<polyline class="st22" points="553,273.3 529.5,295.4 547.3,325.2 542.3,329.3 				"/>
				<path class="st22" d="M555.5,278.6c0,0,5.7-18.8-8.2-20.4"/>
			</g>
		</g>
	</g>
	<g>
		<circle class="st30" cx="706" cy="415.5" r="0.7"/>
		<circle class="st30" cx="706" cy="413.1" r="0.7"/>
		<circle class="st30" cx="706" cy="410.7" r="0.7"/>
	</g>
</g>
<g>
	<path class="st4" d="M107.6,61.5h200.2c13,0,23.6,10.5,23.6,23.6V515c0,13-10.5,23.6-23.6,23.6H107.6c-13,0-23.6-10.5-23.6-23.6V85
		C84.1,72,94.6,61.5,107.6,61.5z"/>
	<circle class="st8" cx="307.9" cy="115.2" r="10.7"/>
	<circle class="st8" cx="103.9" cy="166.2" r="11"/>
	<path class="st8" d="M84.1,138h247.4"/>
	<path class="st35" d="M106.3,487.1v5.8h3.8v-4.3h3.3v4.3h3.8v-5.8h2.9l-8.1-8.2l-8.1,8.2H106.3z"/>
	<path class="st5" d="M84.1,85c0-13,10.5-23.6,23.6-23.6h200.2c13,0,23.6,10.5,23.6,23.6v11.8H84.1V85z"/>
	<path class="st6" d="M331.4,503.2H84.1"/>
	<path class="st6" d="M169.5,73.3L169.5,73.3c0,3.3,2.6,5.9,5.9,5.9h64.8c3.3,0,5.9-2.6,5.9-5.9l0,0"/>
	<path class="st6" d="M293.1,493.2v-12.1h5.5l0.7,1.8h8.5v10.3H293.1z"/>
	<path class="st36" d="M205.9,490.7v-4l2.9,2.2L205.9,490.7z"/>
	<rect x="198.9" y="483.7" class="st36" width="16.9" height="9.6"/>
	<path class="st6" d="M201.9,481.5h11"/>
	<path class="st6" d="M203.3,479.6h8.5"/>
	<path class="st6" d="M131.2,174.3h105.3"/>
	<path class="st7" d="M131.2,156.6h164.9v5.9H131.2V156.6z"/>
	<path class="st6" d="M248.2,492.7h13.3"/>
	<path class="st8" d="M248.2,492.7l1.7-2.9v-4.6c0-2.7,2.2-5,5-5c2.7,0,5,2.2,5,5v4.6l1.7,2.9"/>
	<path class="st37" d="M256.5,492.7c0,0.9-0.7,1.7-1.7,1.7c-0.9,0-1.7-0.7-1.7-1.7"/>
	<path class="st37" d="M254,480.3c0-0.5,0.4-0.8,0.8-0.8c0.5,0,0.8,0.4,0.8,0.8"/>
	<path class="st6" d="M159.2,493.6c3.3,0,5.9-2.6,5.9-5.9c0-3.3-3.4-4.7-4.4-5.5c-1.5-1.1-1.2-3.3-1.1-4c-3.5,1.2-3.9,6.6-3.7,9.2
		c-0.9-0.3-1.6-2-1.8-2.9c-0.3,0.9-0.7,1.8-0.7,3.3C153.3,491,155.9,493.6,159.2,493.6z"/>
	<path class="st38" d="M119.5,111.6c-0.2-0.9-0.9-1.6-1.8-1.8c-1.6-0.4-8-0.4-8-0.4s-6.4,0-8,0.4c-0.9,0.2-1.6,0.9-1.8,1.8
		c-0.4,1.6-0.4,4.9-0.4,4.9s0,3.3,0.4,4.9c0.2,0.9,0.9,1.6,1.8,1.8c1.6,0.4,8,0.4,8,0.4s6.4,0,8-0.4c0.9-0.2,1.6-0.9,1.8-1.8
		c0.4-1.6,0.4-4.9,0.4-4.9S119.9,113.2,119.5,111.6z"/>
	<path class="st0" d="M107.7,119.6l5.3-3.1l-5.3-3.1V119.6z"/>
	<path class="st39" d="M124.3,118.7l-2.3-8.3h2l0.8,3.8c0.2,0.9,0.4,1.7,0.4,2.4h0.1c0.1-0.5,0.2-1.3,0.5-2.4l0.8-3.8h2l-2.3,8.3v4
		h-2V118.7L124.3,118.7z"/>
	<path class="st39" d="M129.2,122.4c-0.4-0.3-0.7-0.7-0.9-1.3c-0.2-0.6-0.3-1.3-0.3-2.3v-1.3c0-1,0.1-1.7,0.3-2.3
		c0.2-0.6,0.5-1,0.9-1.3c0.4-0.3,1-0.4,1.6-0.4c0.7,0,1.2,0.1,1.6,0.4c0.4,0.3,0.7,0.7,0.9,1.3c0.2,0.6,0.3,1.4,0.3,2.3v1.3
		c0,1-0.1,1.7-0.3,2.3c-0.2,0.6-0.5,1-0.9,1.3c-0.4,0.3-1,0.4-1.6,0.4C130.1,122.8,129.6,122.6,129.2,122.4z M131.4,121
		c0.1-0.3,0.2-0.8,0.2-1.4v-2.8c0-0.6-0.1-1.1-0.2-1.4c-0.1-0.3-0.3-0.4-0.6-0.4c-0.3,0-0.5,0.1-0.6,0.4c-0.1,0.3-0.2,0.8-0.2,1.4
		v2.8c0,0.7,0.1,1.1,0.2,1.4c0.1,0.3,0.3,0.4,0.6,0.4C131.1,121.4,131.3,121.3,131.4,121z"/>
	<path class="st39" d="M140.1,122.6h-1.6l-0.2-1.1h0c-0.4,0.8-1.1,1.2-1.9,1.2c-0.6,0-1-0.2-1.3-0.6c-0.3-0.4-0.4-1-0.4-1.8v-6.7h2
		v6.6c0,0.4,0,0.7,0.1,0.9c0.1,0.2,0.2,0.3,0.4,0.3c0.2,0,0.3-0.1,0.5-0.2c0.2-0.1,0.3-0.2,0.4-0.4v-7.1h2V122.6z"/>
	<path class="st39" d="M145.6,112h-2v10.7h-2V112h-2v-1.6h6V112z"/>
	<path class="st39" d="M150.5,122.6h-1.6l-0.2-1.1h0c-0.4,0.8-1.1,1.2-1.9,1.2c-0.6,0-1-0.2-1.3-0.6c-0.3-0.4-0.4-1-0.4-1.8v-6.7h2
		v6.6c0,0.4,0,0.7,0.1,0.9c0.1,0.2,0.2,0.3,0.4,0.3c0.2,0,0.3-0.1,0.5-0.2c0.2-0.1,0.3-0.2,0.4-0.4v-7.1h2V122.6z"/>
	<path class="st39" d="M157.2,115.1c-0.1-0.6-0.3-1-0.6-1.2c-0.3-0.3-0.6-0.4-1.1-0.4c-0.4,0-0.7,0.1-1,0.3
		c-0.3,0.2-0.6,0.5-0.7,0.8h0v-4.7h-1.9v12.7h1.7l0.2-0.9h0c0.2,0.3,0.4,0.5,0.7,0.7c0.3,0.2,0.7,0.3,1,0.3c0.7,0,1.2-0.3,1.5-0.9
		c0.3-0.6,0.5-1.6,0.5-3v-1.4C157.3,116.5,157.3,115.7,157.2,115.1z M155.3,118.8c0,0.6,0,1.2-0.1,1.5c-0.1,0.4-0.1,0.6-0.3,0.8
		c-0.1,0.2-0.3,0.2-0.5,0.2c-0.2,0-0.3,0-0.5-0.1c-0.1-0.1-0.3-0.2-0.3-0.4v-5.1c0.1-0.3,0.2-0.4,0.3-0.6c0.2-0.2,0.3-0.2,0.5-0.2
		c0.2,0,0.4,0.1,0.5,0.2c0.1,0.2,0.2,0.4,0.2,0.8c0,0.4,0.1,0.9,0.1,1.6V118.8L155.3,118.8z"/>
	<path class="st39" d="M160.2,119.3c0,0.6,0,1,0.1,1.3c0,0.3,0.1,0.5,0.2,0.6c0.1,0.1,0.3,0.2,0.5,0.2c0.3,0,0.5-0.1,0.6-0.3
		c0.1-0.2,0.2-0.6,0.2-1.2l1.7,0.1c0,0.1,0,0.2,0,0.3c0,0.8-0.2,1.5-0.7,1.9c-0.4,0.4-1.1,0.6-1.9,0.6c-1,0-1.7-0.3-2.1-0.9
		c-0.4-0.6-0.6-1.6-0.6-2.9v-1.6c0-1.3,0.2-2.3,0.6-3c0.4-0.6,1.1-0.9,2.1-0.9c0.7,0,1.2,0.1,1.6,0.4c0.4,0.3,0.6,0.7,0.8,1.2
		c0.2,0.5,0.2,1.3,0.2,2.2v1.5h-3.4V119.3z M160.4,115c-0.1,0.1-0.2,0.3-0.2,0.6c0,0.3-0.1,0.7-0.1,1.3v0.6h1.5V117
		c0-0.6,0-1-0.1-1.3c0-0.3-0.1-0.5-0.2-0.6c-0.1-0.1-0.3-0.2-0.5-0.2C160.7,114.9,160.6,114.9,160.4,115z"/>
	<rect x="236.5" y="302" class="st40" width="95" height="21"/>
	<polyline class="st41" points="330.5,343 236.5,343 236.5,195 330.5,195 	"/>
	<rect x="93" y="429.5" class="st30" width="136" height="38.5"/>
	<rect x="237" y="429.5" class="st30" width="95" height="38.5"/>
	<rect x="97.9" y="359.8" class="st11" width="73.1" height="5.9"/>
	<path class="st6" d="M98,377.4h210"/>
	<path class="st6" d="M97.9,389.2h146.6"/>
	<rect x="123.2" y="404.3" class="st11" width="30.3" height="4.8"/>
	<g>
		<rect x="99.1" y="402.2" class="st42" width="15.9" height="9.1"/>
		<path class="st0" d="M106,408h-1.7l-0.3,1h-1.1l1.8-4.8h0.9l1.8,4.8h-1.1L106,408z M104.5,407.2h1.2l-0.6-1.8L104.5,407.2z"/>
		<path class="st0" d="M107.6,407.2c0-0.6,0.1-1,0.4-1.3c0.3-0.3,0.6-0.5,1-0.5c0.3,0,0.6,0.1,0.9,0.4v-1.8h1v5.1H110l0-0.4
			c-0.2,0.3-0.5,0.4-0.9,0.4c-0.4,0-0.8-0.2-1-0.5C107.8,408.2,107.6,407.8,107.6,407.2z M108.6,407.3c0,0.3,0.1,0.6,0.2,0.8
			c0.1,0.2,0.3,0.3,0.5,0.3c0.3,0,0.5-0.1,0.6-0.4v-1.4c-0.1-0.3-0.3-0.4-0.6-0.4C108.8,406.1,108.6,406.5,108.6,407.3z"/>
	</g>
	<path class="st43" d="M251.4,311.9h47.3"/>
	<line class="st6" x1="251" y1="333.5" x2="331" y2="333.5"/>
	<line class="st8" x1="83.3" y1="467.5" x2="330.7" y2="467.5"/>
	<g>
		<defs>
			<rect id="SVGID_7_" x="92.5" y="195" width="136" height="109.5"/>
		</defs>
		<clipPath id="SVGID_6_">
			<use xlink:href="#SVGID_7_"  style="overflow:visible;"/>
		</clipPath>
		<g class="st34">
			<path class="st45" d="M162.8,225.9c0,0-9.3,1.6-14.1,7.7c-2.8,3.6-16.1,23.5-18.7,38.7c-0.6,3.3,2.2,10.2,5.8,11.1
				c3.5,0.8,12.4-1.3,12.6-1.5s4.8-5.6,4.6-6.8S162.8,225.9,162.8,225.9z"/>
			<path class="st41" d="M142.3,283.1c3.1-0.5,6-1.2,6.1-1.3c0.2-0.2,4.8-5.6,4.6-6.8"/>
			<path class="st46" d="M198,288.3c0,0,4.8,8.9,7.3,17.2c2.5,8.3,3.8,19.2,3.8,19.2l-62.3,4.1c2.3-26.1,3.6-26.2,6.9-43.6
				c1.6-8.3-2.5-7.8-2.5-7.8L198,288.3z"/>
			<path class="st45" d="M149.2,284.8c0.7,2.7,3.5,4.3,3.7,4.8l45.1-1.3c0.8-1.1,2.1-2,2.8-3.1c3.3-5.2,8.2-4.9,8.6-11
				c0.4-5.4,0.4-10.9,0.4-16.4c-0.7-4.7-5.2-9.4-5.7-14.1c-0.4-3.3-0.6-7.3-2.5-10.1c-0.9-1.3-2.1-2.4-3.4-3.4
				c-4.1-3-9.1-4.4-14.1-5.3c-9.3-1.6-9.8-0.6-19.2,0.7c-6.2,0.8-10.3,3.2-12.9,9.1c-0.1,0.2-0.1,0.3-0.2,0.5
				c-2.5,5.8-7,11.8-7.5,18.1C143.8,259.2,147.5,278.1,149.2,284.8z"/>
			<path class="st41" d="M144.3,253.2c-0.5,6,3.2,24.9,4.9,31.6c0.7,2.7,3.5,4.3,3.7,4.8l45.1-1.1l2.8-3.3"/>
			<path class="st0" d="M151.4,246c0,0,1.5-12.3,3.2-13.5c1.7-1.2,2.8-0.3,4.2,1.1c1.4,1.4,2.4,1.4,4.2,2.3c1.8,0.9,0.8,1.3,1.9,3.1
				c1,1.8,1.1,1.8,1.2,2.9c0.1,1.1-13.5,5-13.5,5L151.4,246z"/>
			<path class="st0" d="M156.7,246.7c0,0-3.5-2.9-8.9-3.3c-5.4-0.4-7.4,4.2-9.1,11c-1.7,6.8-7,27.6-7,27.6l2,1.4
				c0,0,25.2-19.4,26.6-25.5C162.2,249.2,156.7,246.7,156.7,246.7z"/>
			<path class="st27" d="M155.3,247.9c0,0-3.1-2.5-7.7-2.9c-4.6-0.4-7.1,5.6-8.5,11.4c-1.5,5.8-6,23.8-6,23.8l1.8,1.2
				c0,0,22.8-17.8,23.9-23C160.4,250.9,155.3,247.9,155.3,247.9z"/>
			<g>
				<path class="st47" d="M155.1,207.1c0.2,1.9,0.2,3.7,0.3,5.6c0.1,1.7,0.2,3.4,0.2,5.1c0,0.9-0.1,1.9,0.1,2.8
					c1.1,0.2,2.9,0.2,3.7,0c1.6-0.4,3-0.4,4.6-0.3c1.4,0.1,2.7-0.4,4-0.4c0.9,0,1.7,0.4,2.6,0.2c0.2,0,0.4-0.1,0.6-0.2
					c0-0.1,0.1-0.2,0.1-0.3c0.4,0,0.8,0,1.2-0.1c0,0,0,0,0.1,0c0.3-0.1,0.7-0.1,1-0.1c0.9-0.1,1.8-0.3,2.7-0.5
					c0.3-0.1,0.7-0.2,1-0.3c0,0.2,0,0.3,0,0.5c1.4-0.3,2.3-0.3,3.6-0.1c1,0.1,1.7-0.2,2.6-0.4c0.7-0.1,1.4-0.1,2.1-0.1
					c0.4,0,0.8,0,1.2,0c0-0.8-0.2-1.6-0.4-2.5c-0.3-1.8-0.2-3.6-0.6-5.4c-0.4-2.3-0.6-4.7-0.9-7.1c-0.1-0.9-0.2-1.7-0.3-2.5
					c-0.3-2.5-1.1-4.9-2.7-6.9c-3.1-3.9-7.8-5.4-12.7-4.9c-3.7,0.4-7.8,1.5-10.6,4c-1.8,1.3-2.7,3.4-3.2,5.5c-0.2,1-0.4,2.1-0.5,3.2
					c-0.1,0.9,0,1.7,0,2.6C155.2,205.4,155.1,206.3,155.1,207.1z"/>
				<path class="st48" d="M179.2,218.8c0-0.5,0-1,0-1.6c0-1.2,0-2.4-0.1-3.4c0-1,0-1.7,0-1.7s-2.2,1.6-4.1,2.9
					c-1.2,0.8-2.3,1.6-2.5,1.6c-0.2,0.1-1-0.1-2.1-0.2c-2.4-0.4-5.8-1.2-5.8-1.2s0.4,1.2,0.8,2.7c0.4,1.4,0.8,3,0.9,4
					c0,0.2,0,0.4,0.1,0.6c0.4,1.5,0.8,2.9,1.1,4.4c0.1,0.7,0.2,1.5,0.3,2.2c1.9,0.7,4.2,0.6,5.9,0.1c2.4-0.7,4.4-2,5.9-3.7
					c0.3-0.5,0.5-0.8,0.6-0.9C180.6,223.8,179.2,221.3,179.2,218.8z"/>
				<path class="st47" d="M179.1,213.9c-1.1,0.3-2.5,0.7-4.1,1.2c-1.5,0.4-3.1,0.9-4.6,1.4c-1.8,0.5-3.5,1.1-5,1.5
					c0.4,1.4,0.8,3,0.9,4c0,0.2,0,0.4,0.1,0.6c0.3,1.2,0.7,2.4,0.9,3.7c1.1,0.3,2.3,0.4,3.8-0.1c2.9-1,6.4-6.1,8.1-8.9
					C179.2,216.1,179.1,214.8,179.1,213.9z"/>
				<path class="st48" d="M159.1,198.4c0,0-0.3,2.4-0.3,5.9c0,0.3,0,0.7,0,1c0,0,0,0,0,0c0,0.5,0,1,0.1,1.6c0.1,2.3,0.4,4.9,1,7.4
					c1.3,5,5.1,8.6,8.5,8.8c3.9,0.2,7.4-2.7,9.4-6.5c2-3.8,2.7-14.5,2.1-18.1c-0.6-3.6-11.7-6.3-16.4-4.6
					C158.6,195.4,159.1,198.4,159.1,198.4z"/>
				<path class="st41" d="M159.1,198.4c0,0-0.3,2.4-0.3,5.9c0,0.3,0,0.7,0,1c0,0,0,0,0,0c0,0.5,0,1,0.1,1.6c0.1,2.3,0.4,4.9,1,7.4
					c1.3,5,5.1,8.6,8.5,8.8c3.9,0.2,7.4-2.7,9.4-6.5c2-3.8,2.7-14.5,2.1-18.1c-0.6-3.6-11.7-6.3-16.4-4.6
					C158.6,195.4,159.1,198.4,159.1,198.4z"/>
				<path class="st48" d="M177.9,206c0,0,1-1.6,2.9-1.1c1.8,0.5,2.2,4.5,0.2,6.4c-2,1.9-4.3,2.4-4.3,2.4L177.9,206z"/>
				<path class="st49" d="M179.8,210.2c-0.4-1.4-0.1-2.7,0.7-3.9c0.2-0.3-0.3-0.7-0.6-0.3c-0.9,1.3-1.2,2.8-0.8,4.4
					C179.3,210.8,180,210.6,179.8,210.2z"/>
				<path class="st47" d="M181.2,218.4c0.6-4.5,2.7-8.8,1.3-13.4c-0.4-1.3-0.8-2.5-1.1-3.8c-0.2-1.3-0.3-2.7-0.9-4
					c-0.7-1.7-2.1-3-3.7-3.9c-4.2-2.3-9.4-1.4-13.9-0.7c-4.6,0.7-5.3,5.8-5.2,9.7c0.1,2.3,0.8,1.5,2.5,1.1c0.5-0.1,0.7,0,1-0.5
					c0.3-0.5,0.2-1.2,0.3-1.7c0.2-0.7,0.5-1.4,0.9-2.1c0.2,0.6,0.6,1.1,1.1,1.5c1.4,1.2,3.5,2.1,5.3,2.3c0.2,0,0.4-0.2,0.3-0.4
					c-0.1-0.4-0.3-0.8-0.4-1.1c0.3,0.2,0.6,0.4,0.9,0.6c0.6,0.3,1,0.1,1.8,0.5c0.4,0.2,0.8,0.6,1.2,0.8c0.5,0.2,1.1,0.4,1.7,0.4
					c0.3,1,0.8,1.9,1.3,2.8c1.1,2.3,1.4,4.7,1.7,7.2c0.1,0.9,0.2,1.9,0.8,2.7c0.5,0.7,0.9,1.3,1.3,2
					C180,218.3,180.6,218.3,181.2,218.4z"/>
			</g>
			<path class="st48" d="M188.7,262l-22.7-5.6c-0.7-1.4-2.1-3.6-3.7-4.7c-2.4-1.6-7-1.8-8.5-1.4s-1.2,2.4-1,3.5
				c0.2,1.1,0.3,2.8,0.8,3.7c0.5,0.9,2.9,1.5,5.2,3c2.3,1.5,6.1,2.7,6.1,2.7h0l0,0c4,2.6,8.1,5,12.3,7.3c2,1.1,4.2,2.4,6.4,3.6
				c1.1-0.7,2.2-1.6,3.2-2.7C188.7,269.1,189.4,265.3,188.7,262z"/>
			<path class="st41" d="M188.7,262l-22.7-5.6c-0.7-1.4-2.1-3.6-3.7-4.7c-2.4-1.6-7-1.8-8.5-1.4s-1.2,2.4-1,3.5
				c0.2,1.1,0.3,2.8,0.8,3.7c0.5,0.9,2.9,1.5,5.2,3c2.3,1.5,6.1,2.7,6.1,2.7h0l0,0c4,2.6,8.1,5,12.3,7.3c2,1.1,4.2,2.4,6.4,3.6
				c1.1-0.7,2.2-1.6,3.2-2.7C188.7,269.1,189.4,265.3,188.7,262z"/>
			<path class="st48" d="M136.7,256.8c1.1-0.1,2.1,1,2.7,1.8c0.6,0.9,1.5,2.7,1.4,3.5c-0.1,0.7-0.1,2.8-1,3.7
				c-0.9,0.9-0.4,3-2.6,2.9c-2.2-0.1-3.3-0.7-3.6-1.9c-0.3-1.3-0.5-4.2,0.4-5c0.7-0.6,0.5-1.5,0.7-2.3
				C134.9,258.4,135.6,257,136.7,256.8C136.6,256.8,136.7,256.8,136.7,256.8z"/>
			<path class="st41" d="M136.7,256.8c1.1-0.1,2.1,1,2.7,1.8c0.6,0.9,1.5,2.7,1.4,3.5c-0.1,0.7-0.1,2.8-1,3.7
				c-0.9,0.9-0.4,3-2.6,2.9c-2.2-0.1-3.3-0.7-3.6-1.9c-0.3-1.3-0.5-4.2,0.4-5c0.7-0.6,0.5-1.5,0.7-2.3
				C134.9,258.4,135.6,257,136.7,256.8C136.6,256.8,136.7,256.8,136.7,256.8z"/>
			<path class="st45" d="M195.1,228.3c0,0,8.3,3.4,11.1,12.1c2.8,8.7,8.1,25,8.7,29.7c0.6,4.8,1.8,9.8-3.7,13.2
				c-5.5,3.4-7.9,2.4-8.7,2.2c-0.8-0.2-19.1-7.2-19.1-13.5c0-3-0.7-7.8,4-10c3.5-1.6,13.8,0.8,12.8-0.7c-2.3-3.4-1.1-10.6,0-13.2
				S195.1,228.3,195.1,228.3z"/>
			<path class="st41" d="M211.2,283.3c-5.5,3.4-7.9,2.4-8.7,2.2c-0.8-0.2-19.1-7.2-19.1-13.5c0-3-0.7-7.8,4-10
				c1.7-0.8,11.8,2.4,14.5,3.5"/>
		</g>
		<path style="clip-path:url(#SVGID_6_);fill:#E8EAED;" d="M123.2,285.8c-7.6,0-13.8,1.5-13.8,3.3v14.5c0,1.8,6.2,3.3,13.8,3.3
			c7.6,0,13.8-1.5,13.8-3.3V289C137,287.2,130.9,285.8,123.2,285.8z"/>
		<path style="clip-path:url(#SVGID_6_);fill:#FFFFFF;" d="M135.7,288.7c-0.1-0.4-0.6-0.6-1-0.7c-7.4-2.2-15.4-2.2-22.7,0
			c-1.1,0.3-1.8,1-0.6,1.8c2,1.5,5.2,1.5,7.6,1.6c5,0.3,10.2-0.1,15-1.2c0.5-0.1,1.1-0.3,1.5-0.6c0.2-0.2,0.4-0.5,0.3-0.8
			C135.7,288.8,135.7,288.8,135.7,288.7z"/>
		<path style="clip-path:url(#SVGID_6_);fill:#FBBC04;" d="M131,284.4c-1.2,1.8-0.2,3.4-2.9,4.5c-0.5,0.2-3.4,0.7-3.8,0.7
			c-0.6,0-1.2-0.4-1.8-0.4c-0.6,0-1.1,0.3-1.8,0.3c-0.5,0-1.1-0.3-1.6-0.4c-0.6-0.1-1.1,0-1.7,0.1c-0.8,0.2-1.5-0.1-2.1-0.8
			c0.2,0.1,0.5,0,0.6-0.2c0.1-0.1,5.5-0.7,5.9-0.5c0.8,0.3,1.4-0.8,0.7-1.1c-2-0.9-4.9-0.4-6.9,0.2c-0.8,0.2-2-0.1-2.5,0.8
			c-0.5,0.9,0.1,1.7,0.7,2.2c1.5,1.1,3.9,0.5,5.6,0.8c1.8,0.2,3.8,0.6,5.6,0.6c0.8,0,1.4-0.4,2.1-0.6c0.9-0.3,2.1,0,2.9-0.5
			c1.8-0.9,1.1-3.5,2.1-5C132.5,284.3,131.4,283.7,131,284.4z"/>
	</g>
	<g>
		<defs>
			<rect id="SVGID_9_" x="236.5" y="195" width="95" height="107"/>
		</defs>
		<clipPath id="SVGID_8_">
			<use xlink:href="#SVGID_9_"  style="overflow:visible;"/>
		</clipPath>
		<g class="st44">
			<g>
				<path class="st54" d="M281.7,450c0,0,1.8,6.9,0.4,10.7c-1.4,3.8,9.8-0.2,9.8-0.2s-1.6-4.6-1.3-10.7
					C291,443.7,281.7,450,281.7,450z"/>
				<path class="st54" d="M319.2,450.7c0,0-1.4,6.2,0,10c1.4,3.8-9.8-0.2-9.8-0.2s1.2-3.9,0.9-10
					C309.9,444.4,319.2,450.7,319.2,450.7z"/>
				<path class="st55" d="M280.7,303.7l-2.7,3.4c-4.8,20.8-8.1,61.6-7.2,87.4h21.3l14.3-61.6C306.5,332.9,300.4,300.5,280.7,303.7z"
					/>
				<path class="st55" d="M324,296.7c0,0,15.5,7,13,40.1c-2.5,33.1-8.6,57.5-8.6,57.5l-20.9-1.1l-4.3-63.6L324,296.7z"/>
				<path class="st26" d="M324.7,295.8c0,0,19.5,11.6,15.2,61.5l-35.8,18.9l-37.2-22.6c0,0,8.3-48.4,15.7-56.7
					C290.1,288.5,324.7,295.8,324.7,295.8z"/>
				<g>
					<path class="st56" d="M303.6,227.4c-3.8-8.6-2.9-19.5-8-23.5c-1.9-1.4-3.5-2-4.3-1.6c0.3-0.3,5.3-1.2,5.9-1.9
						c0.9-1,15.7,1.6,17.1,15.1c0,0.1,0,0.3,0,0.4c0.6,5.6,2.6,6.8,9.4,8.3c8,1.8,13.6,12.5,6.1,25.2c0,0-0.1,0-0.4,0
						c-4-0.3-14.2-3.1-16-6.6C309.6,235.6,306.9,234.9,303.6,227.4z"/>
				</g>
				<g>
					<path class="st56" d="M298.5,253.5c0.8-9.4-3.4-19.5,0.2-24.8c1.3-2,2.7-3,3.6-2.8c-0.4-0.2-1-0.5-1.8-1
						c-1.2-0.7-18.8,7.4-15.8,20.8c0,0.1,0.1,0.3,0.1,0.4c1.2,5.5-0.3,7.3-6.3,10.9c-7,4.2-6.8,5.8,4.3,15.5c0,0,0.1,0,0.3-0.1
						c3.7-1.5,4.1,5.5,4.7,1.5C289.1,265.6,297.8,261.6,298.5,253.5z"/>
				</g>
				<path class="st41" d="M312.9,236.4c0.2,0.1,3.8,3.1,12.5,5.1"/>
				<path class="st57" d="M295.3,230.5l1.5,7.4l16-1.5c-2.8-3.3-8.4-15.6-8.6-19.6L295.3,230.5z"/>
				<path class="st57" d="M296.7,237.3c11.7,23.5-3.1,26.8-9.6,29.4l3.8-26.2C295.4,238.8,296.7,237.3,296.7,237.3z"/>
				<path class="st57" d="M311.5,236c0.2,0.1,4.2,3.5,12.9,5.5c9.4,2.2-3.2,30.4-3.2,30.4l-16.5,8.2l-20.4-13.6
					c0,0-3.1-21.4-2.5-22.3c0,0,2-1.2,6.8-3c6.1-2.4,7.4-4.1,7.4-4.1"/>
				<path class="st26" d="M278.3,305.1c0,0,1.2-2.3,7-8.1c4.8-4.8,16.4-12.4,20.2-11.2c3.8-1.2,15.4,6.4,20.2,11.2
					c5.8,5.8,7.2,9.1,7.2,9.1c-0.8,18.8-26.7,29.8-27.5,29.5C304.8,335.8,279.1,323.9,278.3,305.1z"/>
				<path class="st56" d="M302.6,222.6c0,0,1.7,0.4,2-3.1c0.4-3.6-2.6-6.2-4.7-5.3c-2.1,1-1.7,4.2-1.7,4.2s-13.7-1-12-11.9
					c2.6-3.8,6.8-6.3,11.8-6.6c8.5-0.4,15.7,6.5,16.1,15.4c0.4,8.9-6.2,16.3-14.7,16.7c0,0,1.5-2.3,2-3.6
					C302.6,225.7,302.6,222.6,302.6,222.6z"/>
				<path class="st57" d="M295.3,230.5l1.5,7.4l16-1.5c-2.8-3.3-8.4-15.6-8.6-19.6L295.3,230.5z"/>
				<path class="st41" d="M312.9,236.4c-2.8-3.3-8.4-15.6-8.6-19.6l-9,13.7l1.2,5.9l0.1,0.5"/>
				<g>
					<polygon class="st57" points="297.1,237.1 312.5,237 312.9,258.8 296.8,258.8 					"/>
					<path class="st57" d="M296.9,237.4l3.9,8.7c0,0.2,0.2,0.3,0.4,0.2l11.3-9.4c0,0-13.8-2.7-15.5,0.1
						C296.9,237.2,296.9,237.3,296.9,237.4z"/>
				</g>
				<path class="st47" d="M296.4,235.8l-0.5-2.4c0,0,6.8-6.3,5.4-11.2c0,0,0.2-0.4,1.1-0.3s1.1-3.3,1.1-3.5c0.1-0.5,2.2,4.2-0.3,5.2
					C303.2,223.5,304.7,230.6,296.4,235.8z"/>
				<path class="st57" d="M284.3,225.6c0.2-0.6,0.5-1.6,0.7-2.2c0.9-2.9-1.2-4.4-1.5-8.3c-0.2-3.3,1.8-7.1,2.5-8.2
					c0.1-0.1,0.1-0.2,0.2-0.3c-1.1,9.3,11.9,11.7,11.9,11.7s-1-3.2,2-4.3c2.2-0.8,4.9,2,4.8,5.6c-0.1,3.8-2.4,3-2.4,3
					s0.9,4.8-1.1,6.8c-0.7,0.7-1.7,2.1-3,3c-2.4,1.8-5.2,3.2-5.2,3.2c-2.9,1-7.4-8.4-7.4-8.4C283.8,227.3,284.1,226.3,284.3,225.6z"
					/>
				<path class="st41" d="M284.3,225.6c0.2-0.6,0.5-1.6,0.7-2.2c0.9-2.9-1.2-4.4-1.5-8.3c-0.2-3.3,1.8-7.1,2.5-8.2
					c0.1-0.1,0.1-0.2,0.2-0.3c-1.1,9.3,11.9,11.7,11.9,11.7s-1-3.2,2-4.3c2.2-0.8,4.9,2,4.8,5.6c-0.1,3.8-2.4,3-2.4,3
					s0.9,4.8-1.1,6.8c-0.7,0.7-1.7,2.1-3,3c-2.4,1.8-5.2,3.2-5.2,3.2c-2.9,1-7.4-8.4-7.4-8.4C283.8,227.3,284.1,226.3,284.3,225.6z"
					/>
				<path class="st56" d="M285.1,208.3c0,0,0.8,6.7,12.9,9.9l-11.8-11.6C285.9,207,285.3,207.7,285.1,208.3z"/>
				<path class="st56" d="M285.1,208.3c0,0,3.8,8.2,5.7,9l-7.3,0.5C283.4,217.9,281.5,213.8,285.1,208.3z"/>
				<path class="st46" d="M295.1,257l10.4,1.3L316,257l12.6,12.9c-1.6,7.4-3.3,14.7-3.9,25.9c-13.2,2.2-26,2.2-38.3,0
					c-0.1-11.8-1.9-19.2-3.9-25.9L295.1,257z"/>
				<g>
					<path class="st47" d="M278.9,288.2c0.4,2.5,10,4.6,21.7,4.6c11.8,0,21.4-2,21.7-4.6c0.1,0.4,0.3,8.9-6,15.2
						c-5.3,5.3-13.3,6.4-15.7,6.4c-2.2,0-10.4-1-15.7-6.4C278.6,297.2,278.8,289,278.9,288.2z"/>
					<path class="st58" d="M279,287.7c0-0.1,0.1-0.2,0.1-0.3c1.5-2.3,10.6-4,21.5-4c11,0,20,1.8,21.5,4c0.1,0.1,0.1,0.2,0.1,0.3
						c0.1,0.1,0.1,0.3,0.1,0.4c0,0.1,0,0.1,0,0.2c-0.4,2.5-10,4.6-21.7,4.6c-11.8,0-21.4-2-21.7-4.6c0-0.1,0-0.1,0-0.2
						C278.9,287.9,278.9,287.8,279,287.7z"/>
				</g>
				<path class="st18" d="M304.7,218.1c0,0-10.5-8-19.6-9.8c0,0,0.6-3.4,4.9-5.7C292.2,201.4,305.1,210.7,304.7,218.1z"/>
				<g>
					<g>
						<path class="st57" d="M312.9,237.7c0,0,2.2,1.7,7.5,3l7.5,25.8C321.1,264.4,304.8,262.3,312.9,237.7z"/>
						<path class="st0" d="M323.4,240.9c10.3,2.8,14.2,5.5,18.3,12.3c1.9,3.3,8.5,17.7,13.1,27c2.8,5.7,3.8,12,1,15.2
							c-0.1,0.1-0.4,0.4-0.6,0.5c-1,0.7-7.3,0.5-11.8-6.9l-13.6-20.9c-0.3-0.5-1.1,0.1-0.9,0.4c0.4,0.6-5.2-1.7-6.7-2.1l-4-26.7
							C318.8,239.8,322.2,240.6,323.4,240.9z"/>
						<path class="st41" d="M323.4,240.9c10.3,2.8,14.2,5.5,18.3,12.3c1.9,3.3,8.5,17.7,13.1,27c2.8,5.7,3.8,12,1,15.2
							c-0.1,0.1-0.4,0.4-0.6,0.5c-1,0.7-7.3,0.5-11.8-6.9l-14.6-21.9c-0.3-0.5-0.1,1.1,0.1,1.4c0.4,0.6-5.2-1.7-6.7-2.1l-4-26.7
							C318.8,239.8,322.2,240.6,323.4,240.9z"/>
					</g>
					<g>
						<path class="st41" d="M287.1,266.8l3.8-26.2c4.5-1.8,5.8-3.3,5.8-3.3"/>
						<path class="st0" d="M284.6,268.4c-0.1,0.1-0.8,1.3-0.8,1.3c-6.3,14.3-14.4,27.1-17.6,29.6l-4.9-0.6c-1.7-0.2-3.3-1.2-4.2-2.7
							c-2.1-3.6-1.6-5.8,1-12.6c3.3-8.6,9.7-22.5,11.1-25.4c3.4-6.7,8.3-11.7,16.2-15.2c1.7-0.8,5.5-2.3,6.8-2.8"/>
						<path class="st41" d="M284.6,268.4c-0.1,0.1-0.8,1.3-0.8,1.3c-6.3,14.3-14.4,27.1-17.6,29.6l-4.9-0.6
							c-1.7-0.2-3.3-1.2-4.2-2.7c-2.1-3.6-1.6-5.8,1-12.6c3.3-8.6,9.7-22.5,11.1-25.4c3.4-6.7,8.3-11.7,16.2-15.2
							c1.7-0.8,5.5-2.3,6.8-2.8"/>
					</g>
					<path class="st0" d="M292.3,240c0,0,0.9,10.3,11.9,10.2c11-0.1,14.1-10.8,14.1-10.8l7.2,2.2c2.8,22.3,2.9,24.1,2.9,24.1
						s0.1,0.2,0.2,0.5c2.5,8.7-2.6,14-2.6,14h-18.1h-22.6c0,0-5.1-5.3-2.6-14c0.1-0.3,0.2-0.5,0.2-0.5s1-0.5,2.4-3"/>
					<path class="st41" d="M285.2,280.1c0,0-5.1-5.3-2.6-14c0.1-0.3,0.2-0.5,0.2-0.5s1-0.5,2.4-3"/>
					<path class="st41" d="M328.6,266.1c2.5,8.7-2.6,14-2.6,14"/>
					<path class="st41" d="M292.3,240c0,0,0.9,10.3,11.9,10.2c11-0.1,14.1-10.8,14.1-10.8l7.2,2.2"/>
				</g>
				<path class="st27" d="M295.2,288.5c-1.2,0.5-1.7,1.9-1.2,3.1l4.3-2C297.7,288.5,296.3,288,295.2,288.5z"/>
				<path class="st27" d="M288.4,288.8c-1-0.8-2.5-0.6-3.2,0.4l3.8,2.8C289.6,291,289.4,289.5,288.4,288.8z"/>
				<path class="st27" d="M313.3,290.8c0.8-1,0.7-2.4-0.3-3.3l-3,3.6C311,292,312.4,291.8,313.3,290.8z"/>
				<path class="st17" d="M292.5,289.6c0,0.8-0.6,1.4-1.4,1.4s-1.4-0.6-1.4-1.4s0.6-1.4,1.4-1.4S292.5,288.8,292.5,289.6z"/>
				<path class="st39" d="M308.2,259.1l-7.1,30.9c-0.4,0.5-1.3,0.4-1.3-0.3l4.8-31.5c0,0,0.1-1.5,2.1-1.1
					C308.8,257.5,308.2,259.1,308.2,259.1z"/>
				<path class="st27" d="M307.2,290.4C307.2,290.3,307.2,290.3,307.2,290.4l-4.6-0.9c0,0,0,0,0,0.1c-0.2,1.3,0.6,2.5,1.9,2.7
					C305.8,292.5,307,291.6,307.2,290.4z"/>
				<path class="st27" d="M299.1,283.6C299.1,283.6,299.1,283.6,299.1,283.6l-3.4,3.3c0,0,0,0,0,0c0.9,0.9,2.4,0.9,3.3,0
					C300,286,300,284.5,299.1,283.6z"/>
				
					<ellipse transform="matrix(0.229 -0.9734 0.9734 0.229 -44.0629 523.1903)" class="st17" cx="308.3" cy="289.4" rx="1.4" ry="1.4"/>
				
					<ellipse transform="matrix(0.229 -0.9734 0.9734 0.229 -52.9593 515.2199)" class="st17" cx="298.8" cy="291" rx="1.4" ry="1.4"/>
				<path class="st57" d="M352.4,281.3c-4.6-2.7-7.5-3.7-13.4-5.7c-10.9-3.6-24-8.4-24-8.4l0,0l0,0c0,0-10.2-1.6-14.4,0.7
					c-0.8,0.5-1.3,1.1-1.4,1.8c0,0,0,0,0,0l-1.1,6.2c0,0-0.3,1.3,0.5,1.6c0,0-0.5,1.8,0.8,1.1c0,0-0.3,1.1,0.9,0.9
					c0.9-0.2,1.7-2.1,2.1-3.2l10.2-3.4c26.3,21.2,35.2,22.2,35.2,22.2s5.8,1.7,7.7,0.5C357.8,294.3,355.8,283.2,352.4,281.3z"/>
				<path class="st41" d="M352.4,281.3c-4.6-2.7-7.5-3.7-13.4-5.7c-10.9-3.6-24-8.4-24-8.4l0,0l0,0c0,0-10.2-1.6-14.4,0.7
					c-0.8,0.5-1.3,1.1-1.4,1.8c0,0,0,0,0,0l-1.1,6.2c0,0-0.3,1.3,0.5,1.6c0,0-0.5,1.8,0.8,1.1c0,0-0.3,1.1,0.9,0.9
					c0.9-0.2,1.7-2.1,2.1-3.2l10.2-3.4c26.3,21.2,35.2,22.2,35.2,22.2s5.8,1.7,7.7,0.5C357.8,294.3,355.8,283.2,352.4,281.3z"/>
				<path class="st57" d="M313.9,307.5l-5.9,0.8l-5.1-0.9c-0.1-0.4-0.1-0.8-0.1-0.8s0.2-1.8,1.6-2.6c2.6-1.6,1-3.4,1-3.4
					c-0.9,1.3-2.8,2.1-4.5,3c0,0-1.3,0.8-2,1.7s-1.4,1.9-1.4,1.9s0,0.1-0.1,0.3c-2.8-1.8-13.7-8.8-20.7-14.5
					c-11.9-9.8-20.6-2.1-20.6-2.1l-0.1,2c-0.1,3.6,2,6.8,5.2,8.5c5.5,2.8,16.4,7.1,36.8,11.8l0,0c0.2,0,7.2,0.4,9.8-0.3
					c0.5-0.1,1-0.3,1.5-0.6c0,0,5.8-2.2,6.2-2.8C315.7,308.7,313.9,307.5,313.9,307.5z"/>
				<path class="st41" d="M313.9,307.5l-5.9,0.8l-5.1-0.9c-0.1-0.4-0.1-0.8-0.1-0.8s0.2-1.8,1.6-2.6c2.6-1.6,1-3.4,1-3.4
					c-0.9,1.3-2.8,2.1-4.5,3c0,0-1.3,0.8-2,1.7s-1.4,1.9-1.4,1.9s0,0.1-0.1,0.3c-2.8-1.8-13.7-8.8-20.7-14.5
					c-11.9-9.8-20.6-2.1-20.6-2.1l-0.1,2c-0.1,3.6,2,6.8,5.2,8.5c5.5,2.8,16.4,7.1,36.8,11.8l0,0c0.2,0,7.2,0.4,9.8-0.3
					c0.5-0.1,1-0.3,1.5-0.6c0,0,5.8-2.2,6.2-2.8C315.7,308.7,313.9,307.5,313.9,307.5z"/>
				<path class="st55" d="M293.3,395.9c0,0,4,16.7,1.3,37.2c-1.6,12.4-3,20.7-3,20.7l-10.5,0.8l-10.2-60.1
					C270.9,394.5,288.7,378.3,293.3,395.9z"/>
				<path class="st55" d="M307.5,393.2c0,0-6,20.5,2.2,61.2l9.4,0c0,0,10.7-63.9,10-67.5S307.5,393.2,307.5,393.2z"/>
			</g>
			<path class="st54" d="M291.3,457.5c0,0,1.1,3.4,1.8,5.2c0.7,1.8,0.5,3.8-5,4.8s-7.2,3-7.2,3l-4.1-5c0,0,5.4-2.4,5.9-8.5
				L291.3,457.5z"/>
			<path class="st59" d="M280.1,462.2l-5.8,3.9c0,0-4.1,1.5-4.2,3.1c-0.2,1.6-0.3,1.8,0.3,2.5c0.6,0.6,3.5,1.9,13.1,0.4
				c1.7-0.3,4.3-2.2,4.3-2.2S284.5,464.2,280.1,462.2z"/>
			<path class="st54" d="M310,457.5c0,0-1.1,3.4-1.8,5.2c-0.7,1.8-0.5,3.8,5,4.8c5.5,1,7.2,3,7.2,3l4.1-5c0,0-5.4-2.4-5.9-8.5
				L310,457.5z"/>
			<path class="st59" d="M321.3,462.2l5.8,3.9c0,0,4,1.7,4.2,3.1c0.2,1.6-0.6,2.6-1.6,3.3c-1,0.7-3,1.9-11.7-0.5
				c-1.7-0.5-4.9-2.1-4.9-2.1S314.2,464.2,321.3,462.2z"/>
			<path class="st59" d="M283.3,469.3c-0.2-0.2,10.1-4.1,10.1-4.1s0.8-0.4,1,0.1c0.2,0.5-0.4,1.7-0.4,1.7l-6.7,3
				C287.2,470,285.4,471.7,283.3,469.3z"/>
			<path class="st59" d="M317.6,469.3c0.2-0.2-10.1-4.1-10.1-4.1s-0.8-0.4-1,0.1s0.4,1.7,0.4,1.7l6.7,3
				C313.7,470,315.5,471.7,317.6,469.3z"/>
		</g>
		<path style="clip-path:url(#SVGID_8_);fill:#D2E3FC;" d="M286.5,206.6c0,0-6.2,2.8-8.5-4.6c0,0,2.8-2.5,9.1,2.6c0,0-0.6-8,6.7-9.1
			C293.7,195.4,295.8,204.6,286.5,206.6z"/>
	</g>
	<rect x="92.5" y="302" class="st40" width="136" height="21"/>
	<rect x="92.5" y="195" class="st41" width="136" height="148"/>
	<path class="st43" d="M105.4,311.9h47.3"/>
	<g>
		<polyline class="st61" points="214.6,306.6 218.6,306.6 218.6,310.4 		"/>
		<polyline class="st61" points="218.6,311.6 218.6,317.7 207.6,317.7 207.6,306.6 213.2,306.6 		"/>
		<line class="st61" x1="211" y1="314.3" x2="218.5" y2="306.8"/>
	</g>
	<line class="st6" x1="105.5" y1="333" x2="199" y2="333"/>
	<path class="st6" d="M107.6,61.5h200.2c13,0,23.6,10.5,23.6,23.6V515c0,13-10.5,23.6-23.6,23.6H107.6c-13,0-23.6-10.5-23.6-23.6V85
		C84.1,72,94.6,61.5,107.6,61.5z"/>
</g>
<g>
	<path class="st4" d="M892.9,61.5h200.2c13,0,23.6,10.5,23.6,23.6V515c0,13-10.5,23.6-23.6,23.6H892.9c-13,0-23.6-10.5-23.6-23.6V85
		C869.3,72,879.9,61.5,892.9,61.5z"/>
	<rect x="881.1" y="161.6" class="st7" width="47.1" height="5.9"/>
	<path class="st8" d="M887,114.5h212c3.3,0,5.9,2.6,5.9,5.9v23.6c0,3.3-2.6,5.9-5.9,5.9H887c-3.3,0-5.9-2.6-5.9-5.9v-23.6
		C881.1,117.1,883.7,114.5,887,114.5z"/>
	<circle class="st8" cx="1084.3" cy="132.2" r="8.8"/>
	<path class="st6" d="M892.9,128.5h11.8"/>
	<path class="st6" d="M892.9,132.2h11.8"/>
	<path class="st6" d="M892.9,135.8h11.8"/>
	<rect x="916.4" y="249.9" class="st11" width="73.1" height="5.9"/>
	<circle class="st62" cx="894" cy="260.6" r="12.9"/>
	<path class="st46" d="M943,267.6h66"/>
	<path class="st6" d="M916.4,279.4H1063"/>
	<path class="st56" d="M1089.8,266.1l1.7,5.1h5.6l-4.5,3.1l1.7,5.1l-4.5-3.1l-4.5,3.1l1.7-5.1l-4.5-3.1h5.6L1089.8,266.1z"/>
	<rect x="916.4" y="302.9" class="st7" width="145.8" height="5.9"/>
	<circle class="st8" cx="894" cy="313.6" r="12.9"/>
	<path class="st6" d="M916.4,320.6h146.5"/>
	<path class="st6" d="M916.4,332.4h130.3"/>
	<path class="st6" d="M1089.8,319.1l1.7,5.1h5.6l-4.5,3.1l1.7,5.1l-4.5-3.1l-4.5,3.1l1.7-5.1l-4.5-3.1h5.6L1089.8,319.1z"/>
	<path class="st6" d="M1081.3,305.9h17.7"/>
	<rect x="916.4" y="355.9" class="st7" width="145.8" height="5.9"/>
	<circle class="st8" cx="894" cy="366.6" r="12.9"/>
	<path class="st6" d="M916.4,373.6h146.5"/>
	<path class="st6" d="M916.4,385.4h130.3"/>
	<path class="st6" d="M1089.8,372.1l1.7,5.1h5.6l-4.5,3.1l1.7,5.1l-4.5-3.1l-4.5,3.1l1.7-5.1l-4.5-3.1h5.6L1089.8,372.1z"/>
	<path class="st6" d="M1081.3,358.9h17.7"/>
	<rect x="916.4" y="409" class="st7" width="145.8" height="5.9"/>
	<circle class="st8" cx="894" cy="419.6" r="12.9"/>
	<path class="st6" d="M916.4,426.6h146.5"/>
	<path class="st6" d="M916.4,438.4h130.3"/>
	<path class="st6" d="M1089.8,425.1l1.7,5.1h5.6l-4.5,3.1l1.7,5.1l-4.5-3.1l-4.5,3.1l1.7-5.1l-4.5-3.1h5.6L1089.8,425.1z"/>
	<path class="st6" d="M1081.3,411.9h17.7"/>
	<rect x="916.4" y="462" class="st7" width="145.8" height="5.9"/>
	<circle class="st8" cx="894" cy="472.6" r="12.9"/>
	<path class="st6" d="M916.4,479.6h146.5"/>
	<path class="st6" d="M916.4,491.4h130.3"/>
	<path class="st6" d="M1089.8,478.2l1.7,5.1h5.6l-4.5,3.1l1.7,5.1l-4.5-3.1l-4.5,3.1l1.7-5.1l-4.5-3.1h5.6L1089.8,478.2z"/>
	<path class="st6" d="M1081.3,464.9h17.7"/>
	<path class="st5" d="M869.3,85c0-13,10.5-23.6,23.6-23.6h200.2c13,0,23.6,10.5,23.6,23.6v11.8H869.3V85z"/>
	<path class="st6" d="M892.9,61.5h200.2c13,0,23.6,10.5,23.6,23.6V515c0,13-10.5,23.6-23.6,23.6H892.9c-13,0-23.6-10.5-23.6-23.6V85
		C869.3,72,879.9,61.5,892.9,61.5z"/>
	<path class="st6" d="M1116.7,503.2H869.3"/>
	<path class="st6" d="M954.7,73.3L954.7,73.3c0,3.3,2.6,5.9,5.9,5.9h64.8c3.3,0,5.9-2.6,5.9-5.9l0,0"/>
	<path class="st7" d="M881.1,176.3H1099v58.9H881.1V176.3z"/>
	<g>
		<rect x="916.9" y="262.9" class="st16" width="15.6" height="8.9"/>
		<path class="st17" d="M923.6,268.6h-1.7l-0.3,1h-1l1.8-4.8h0.9l1.8,4.8h-1L923.6,268.6z M922.2,267.8h1.2l-0.6-1.8L922.2,267.8z"
			/>
		<path class="st17" d="M925.3,267.8c0-0.6,0.1-1,0.4-1.3c0.2-0.3,0.6-0.5,1-0.5c0.3,0,0.6,0.1,0.9,0.4v-1.8h0.9v5h-0.9l0-0.4
			c-0.2,0.3-0.5,0.4-0.9,0.4c-0.4,0-0.8-0.2-1-0.5C925.4,268.8,925.3,268.4,925.3,267.8z M926.2,267.9c0,0.3,0.1,0.6,0.2,0.8
			c0.1,0.2,0.3,0.3,0.5,0.3c0.3,0,0.5-0.1,0.6-0.4v-1.4c-0.1-0.2-0.3-0.4-0.6-0.4C926.4,266.7,926.2,267.1,926.2,267.9z"/>
	</g>
	<g>
		<path class="st5" d="M1089.3,248c-2.7,0-5,2.2-5,5c0,2.7,2.2,5,5,5c2.7,0,5-2.2,5-5C1094.3,250.2,1092.1,248,1089.3,248z"/>
		<path class="st5" d="M1089.3,252.2v3.2"/>
		<path class="st5" d="M1089.3,249.9v0.3"/>
	</g>
	<g>
		<path class="st63" d="M900.3,256.2L900.3,256.2v1.9c0,2.1-0.6,4.1-2.3,5.5l0,0c0,0-0.1,0.1-0.1,0.1c-2.5,2.2-6.3,2.2-8.8,0
			c0,0-0.1-0.1-0.1-0.1c-1.7-1.3-2.3-3.4-2.3-5.5v-1.8v-0.1c0-0.2-0.1-0.4-0.3-0.5c-0.2-0.1-0.5-0.1-0.7,0c-0.2,0.1-0.3,0.3-0.3,0.6
			l0,0v0c-0.4,3.6,0.5,6.6,2.7,8.4c-2.1,0.3-3.5,0.7-3.5,1.3c0,0.9,4,1.6,8.9,1.6c4.9,0,8.9-0.7,8.9-1.6c0-0.5-1.4-1-3.5-1.3
			c1.9-1.5,2.8-3.9,2.8-6.8h0.9l0,0c0.2,0,0.4,0,0.5,0.1c0.2,0.1,0.3,0.2,0.4,0.4c0.1,0.2,0.1,0.3,0.1,0.5c0,0.2,0,0.4-0.1,0.5
			c-0.1,0.2-0.2,0.3-0.4,0.4c-0.2,0.1-0.3,0.1-0.5,0.1l0,0v0h-0.3c-0.2,0-0.4,0.2-0.4,0.4c0,0.2,0.2,0.4,0.4,0.4h0.3v0
			c0.3,0,0.7-0.1,1-0.2c0.3-0.2,0.6-0.4,0.7-0.7c0.2-0.3,0.3-0.6,0.3-1c0-0.3-0.1-0.7-0.3-1c-0.2-0.3-0.4-0.5-0.7-0.7
			c-0.3-0.2-0.6-0.2-1-0.2l0,0h-0.9c0-0.2,0-0.5-0.1-0.7c0,0,0-0.1,0-0.1c0-0.2-0.1-0.4-0.3-0.5c-0.2-0.1-0.5-0.1-0.7,0
			C900.4,255.8,900.3,256,900.3,256.2"/>
		<path class="st63" d="M899.2,261c-3.6,2.9-7.4-2.8-11.8-1c0.3,1.2,0.9,2.3,1.9,3.1c0.1,0,0.1,0.1,0.2,0.1c2.3,2,5.8,2,8.1,0
			c0,0,0.1-0.1,0.1-0.1l0,0C898.4,262.6,898.9,261.9,899.2,261"/>
		<path class="st63" d="M899.5,260.2c-1.7-1.1-4.5-0.7-6.6,0c0.7,0.3,1.4,0.6,2.1,0.9c0.7,0.3,1.4,0.5,2.2,0.4
			C897.7,261.4,899.2,260.8,899.5,260.2"/>
		<circle class="st63" cx="891.1" cy="258.3" r="0.8"/>
		<circle class="st63" cx="893.8" cy="257" r="0.5"/>
	</g>
</g>
</svg>
